<?xml version="1.0" encoding="UTF-8" standalone="no"?>
<!-- Created with Inkscape (http://www.inkscape.org/) -->

<svg
   xmlns:dc="http://purl.org/dc/elements/1.1/"
   xmlns:cc="http://creativecommons.org/ns#"
   xmlns:rdf="http://www.w3.org/1999/02/22-rdf-syntax-ns#"
   xmlns:svg="http://www.w3.org/2000/svg"
   xmlns="http://www.w3.org/2000/svg"
   version="1.1"
   width="744.61749"
   height="479.63751"
   id="svg2"
   xml:space="preserve"><metadata
     id="metadata8"><rdf:RDF><cc:Work
         rdf:about=""><dc:format>image/svg+xml</dc:format><dc:type
           rdf:resource="http://purl.org/dc/dcmitype/StillImage" /><dc:title></dc:title></cc:Work></rdf:RDF></metadata><defs
     id="defs6"><clipPath
       id="clipPath16"><path
         d="m 0,383.71 595.694,0 L 595.694,0 0,0 0,383.71 z"
         id="path18" /></clipPath><clipPath
       id="clipPath40"><path
         d="m 139.565,252.053 63.53,0 0,-138.863 -63.53,0 0,138.863 z"
         id="path42" /></clipPath><clipPath
       id="clipPath56"><path
         d="m 89.8981,249.67 55.9679,0 0,-136.48 -55.9679,0 0,136.48 z"
         id="path58" /></clipPath><clipPath
       id="clipPath72"><path
         d="m 85.98,264.587 35.329,0 0,-31.262 -35.329,0 0,31.262 z"
         id="path74" /></clipPath><clipPath
       id="clipPath88"><path
         d="m 57.4842,264.587 46.1608,0 0,-120.302 -46.1608,0 0,120.302 z"
         id="path90" /></clipPath><clipPath
       id="clipPath104"><path
         d="m 85.98,341.31 99.264,0 0,-91.64 -99.264,0 0,91.64 z"
         id="path106" /></clipPath><clipPath
       id="clipPath120"><path
         d="m 156.367,341.31 93.457,0 0,-76.723 -93.457,0 0,76.723 z"
         id="path122" /></clipPath><clipPath
       id="clipPath136"><path
         d="m 121.309,301.407 128.515,0 0,-64.055 -128.515,0 0,64.055 z"
         id="path138" /></clipPath><clipPath
       id="clipPath152"><path
         d="m 57.484,170.307 176.996,0 0,-77.904 -176.996,0 0,77.904 z"
         id="path154" /></clipPath><clipPath
       id="clipPath168"><path
         d="m 188.394,252.053 58.28,0 0,-105.252 -58.28,0 0,105.252 z"
         id="path170" /></clipPath></defs><g
     transform="matrix(1.25,0,0,-1.25,0,479.6375)"
     id="g10"><g
       id="g12"><g
         clip-path="url(#clipPath16)"
         id="g14"><g
           transform="translate(312.217,130.0947)"
           id="g20"><path
             d="m 0,0 c 0.136,10.14 -2.307,16.274 -14.252,16.274 -12.351,0 -15.882,-6.509 -16.561,-16.399 L 0,0 z m 11.944,-29.418 c -7.329,-6.885 -15.474,-10.14 -26.739,-10.14 -9.501,0 -16.154,2.379 -20.769,6.635 -5.43,5.008 -8.278,12.142 -8.278,24.035 0,9.889 2.036,20.28 8.007,26.414 4.345,4.507 11.131,8.137 21.719,8.137 19.546,0 26.74,-12.018 26.74,-26.79 0,-2.002 -0.136,-5.257 -0.408,-7.635 l -43.437,-0.251 c 0.272,-12.769 2.443,-20.906 16.426,-20.906 8.145,0 14.795,2.754 20.089,7.512 l 6.65,-7.011 z"
             id="path22"
             style="fill:#000000;fill-opacity:1;fill-rule:nonzero;stroke:none" /></g><g
           transform="translate(344.6579,154.2555)"
           id="g24"><path
             d="M 0,0 14.523,-22.658 28.913,0 l 13.98,0 -20.089,-30.045 21.853,-32.422 -14.252,0 -16.151,24.536 -16.29,-24.536 -13.979,0 22.26,32.298 L -14.116,0 0,0 z"
             id="path26"
             style="fill:#000000;fill-opacity:1;fill-rule:nonzero;stroke:none" /></g><g
           transform="translate(415.1084,139.3585)"
           id="g28"><path
             d="m 0,0 c -4.75,-5.508 -6.378,-12.644 -6.378,-19.654 0,-6.008 1.084,-11.141 4.207,-14.521 2.85,-3.129 7.465,-4.883 13.3,-4.883 11.403,0 15.474,6.76 15.474,23.285 0,15.522 -3.527,22.158 -12.759,22.158 C 8.55,6.385 3.394,4.007 0,0 m -6.378,14.897 0,-11.016 C -2.171,11.642 6.65,16.4 16.151,16.4 c 6.789,0 11.947,-2.379 15.475,-5.884 6.245,-6.135 8.009,-16.024 8.009,-25.788 0,-11.517 -2.444,-21.658 -9.637,-27.791 -4.207,-3.505 -10.181,-5.759 -17.51,-5.759 -6.65,0 -13.847,1.878 -18.461,7.511 l 0,-36.303 -12.216,0 0,92.511 11.811,0 z"
             id="path30"
             style="fill:#000000;fill-opacity:1;fill-rule:nonzero;stroke:none" /></g><path
           d="m 479.178,91.789 -12.216,0 0,62.467 12.216,0 0,-62.467 z m -6.11,90.758 c 4.479,0 7.874,-3.129 7.874,-7.26 0,-4.256 -3.395,-7.387 -7.874,-7.387 -4.478,0 -7.873,3.255 -7.873,7.387 0,4.131 3.395,7.26 7.873,7.26"
           id="path32"
           style="fill:#000000;fill-opacity:1;fill-rule:nonzero;stroke:none" /><path
           d="m 507.004,91.789 -12.216,0 0,62.467 12.216,0 0,-62.467 z m -6.106,90.758 c 4.478,0 7.873,-3.129 7.873,-7.26 0,-4.256 -3.395,-7.387 -7.873,-7.387 -4.479,0 -7.874,3.255 -7.874,7.387 0,4.131 3.395,7.26 7.874,7.26"
           id="path34"
           style="fill:#000000;fill-opacity:1;fill-rule:nonzero;stroke:none" /><g
           id="g36"><g
             id="g38" /><g
             id="g44"><g
               clip-path="url(#clipPath40)"
               id="g46"
               style="opacity:0.35000604"><g
                 transform="translate(139.5655,237.3515)"
                 id="g48"><path
                   d="M 0,0 48.829,14.701 63.53,-77.503 6.301,-124.161 0,0 z"
                   id="path50"
                   style="fill:#5934ff;fill-opacity:1;fill-rule:nonzero;stroke:none" /></g></g></g></g><g
           id="g52"><g
             id="g54" /><g
             id="g60"><g
               clip-path="url(#clipPath56)"
               id="g62"
               style="opacity:0.94999701"><g
                 transform="translate(121.3095,249.6697)"
                 id="g64"><path
                   d="m 0,0 -17.665,-16.344 -13.746,-63.019 55.967,-57.116 -6.3,124.161 L 0,0 z"
                   id="path66"
                   style="fill:#5934ff;fill-opacity:1;fill-rule:nonzero;stroke:none" /></g></g></g></g><g
           id="g68"><g
             id="g70" /><g
             id="g76"><g
               clip-path="url(#clipPath72)"
               id="g78"
               style="opacity:0.55000299"><g
                 transform="translate(103.6447,233.3252)"
                 id="g80"><path
                   d="M 0,0 -17.665,31.261 17.665,16.344 0,0 z"
                   id="path82"
                   style="fill:#5934ff;fill-opacity:1;fill-rule:nonzero;stroke:none" /></g></g></g></g><g
           id="g84"><g
             id="g86" /><g
             id="g92"><g
               clip-path="url(#clipPath88)"
               id="g94"
               style="opacity:0.25"><g
                 transform="translate(85.98,264.5866)"
                 id="g96"><path
                   d="M 0,0 17.665,-31.261 3.918,-94.28 -28.496,-120.302 0,0 z"
                   id="path98"
                   style="fill:#5934ff;fill-opacity:1;fill-rule:nonzero;stroke:none" /></g></g></g></g><g
           id="g100"><g
             id="g102" /><g
             id="g108"><g
               clip-path="url(#clipPath104)"
               id="g110"
               style="opacity:0.35000604"><g
                 transform="translate(85.98,264.5866)"
                 id="g112"><path
                   d="M 0,0 35.329,-14.917 99.264,36.82 70.387,76.723 0,0 z"
                   id="path114"
                   style="fill:#5934ff;fill-opacity:1;fill-rule:nonzero;stroke:none" /></g></g></g></g><g
           id="g116"><g
             id="g118" /><g
             id="g124"><g
               clip-path="url(#clipPath120)"
               id="g126"
               style="opacity:0.80000299"><g
                 transform="translate(156.3668,341.3098)"
                 id="g128"><path
                   d="M 0,0 63.53,-35.178 93.457,-76.723 28.877,-39.903 0,0 z"
                   id="path130"
                   style="fill:#5934ff;fill-opacity:1;fill-rule:nonzero;stroke:none" /></g></g></g></g><g
           id="g132"><g
             id="g134" /><g
             id="g140"><g
               clip-path="url(#clipPath136)"
               id="g142"
               style="opacity:0.55000299"><g
                 transform="translate(185.2441,301.4066)"
                 id="g144"><path
                   d="M 0,0 -63.935,-51.737 -45.679,-64.055 3.15,-49.354 49.616,-59.423 64.58,-36.82 0,0 z"
                   id="path146"
                   style="fill:#5934ff;fill-opacity:1;fill-rule:nonzero;stroke:none" /></g></g></g></g><g
           id="g148"><g
             id="g150" /><g
             id="g156"><g
               clip-path="url(#clipPath152)"
               id="g158"
               style="opacity:0.64999402"><g
                 transform="translate(203.0955,159.8483)"
                 id="g160"><path
                   d="m 0,0 -57.229,-46.658 -55.968,57.116 -32.414,-26.021 96.658,-51.882 80.338,54.398 L 0,0 z"
                   id="path162"
                   style="fill:#5934ff;fill-opacity:1;fill-rule:nonzero;stroke:none" /></g></g></g></g><g
           id="g164"><g
             id="g166" /><g
             id="g172"><g
               clip-path="url(#clipPath168)"
               id="g174"
               style="opacity:0.85000598"><g
                 transform="translate(246.674,207.9492)"
                 id="g176"><path
                   d="M 0,0 -11.813,34.035 -58.28,44.104 -43.579,-48.101 -12.194,-61.148 0,0 z"
                   id="path178"
                   style="fill:#5934ff;fill-opacity:1;fill-rule:nonzero;stroke:none" /></g></g></g></g></g></g></g></svg>