<?xml version="1.0" encoding="UTF-8" standalone="no"?>
<svg width="851px" height="315px" viewBox="0 0 851 315" version="1.1" xmlns="http://www.w3.org/2000/svg" xmlns:xlink="http://www.w3.org/1999/xlink" xmlns:sketch="http://www.bohemiancoding.com/sketch/ns">
    <!-- Generator: Sketch 3.3.1 (12002) - http://www.bohemiancoding.com/sketch -->
    <title>Artboard 7 Copy</title>
    <desc>Created with Sketch.</desc>
    <defs>
        <path d="M76.7789877,1.91937251 L57.2972051,30.1687011 L46.2799212,1.91937251 L12.8249979,1.91937251 L0.0610714188,88.3290834 L31.0975665,88.3290834 L37.5467083,44.2294528 L50.7137062,71.8396563 L51.5198489,71.8396563 L72.8826312,44.2294528 L66.4334894,88.3290834 L97.4699844,88.3290834 L110.233911,1.91937251 L76.7789877,1.91937251 Z M192.594826,26.2061256 L196.222469,1.91937251 L125.013194,1.91937251 L112.249268,88.3290834 L183.458542,88.3290834 L187.086184,64.1701553 L148.256976,64.1701553 L149.331833,56.2450043 L183.324185,56.2450043 L186.683113,33.7478015 L152.690761,33.7478015 L153.765618,26.2061256 L192.594826,26.2061256 Z M242.306961,1.91937251 L208.986395,1.91937251 L196.222469,88.3290834 L262.191815,88.3290834 L265.819457,64.0423303 L233.170677,64.0423303 L242.306961,1.91937251 Z M317.009521,1.91937251 L283.688955,1.91937251 L270.925028,88.3290834 L336.894375,88.3290834 L340.522017,64.0423303 L307.873236,64.0423303 L317.009521,1.91937251 Z M402.057578,0.257647298 C370.080584,0.257647298 346.299373,20.5818249 346.299373,50.8763537 C346.299373,76.0578818 362.825299,89.9908086 389.293652,89.9908086 C421.270647,89.9908086 445.051857,69.666631 445.051857,39.3721022 C445.051857,14.1905741 428.525931,0.257647298 402.057578,0.257647298 L402.057578,0.257647298 Z M392.786937,65.1927555 C383.78501,65.1927555 379.888653,59.5684548 379.888653,48.9589784 C379.888653,35.5373517 386.203438,25.0557004 398.564293,25.0557004 C407.56622,25.0557004 411.462577,30.5521761 411.462577,41.1616524 C411.462577,54.7111042 405.147792,65.1927555 392.786937,65.1927555 L392.786937,65.1927555 Z M520.291845,1.91937251 L513.842703,46.0190031 L494.898349,1.91937251 L461.71214,1.91937251 L448.948214,88.3290834 L479.44728,88.3290834 L486.030779,43.9738028 L506.587419,88.3290834 L538.026985,88.3290834 L550.790912,1.91937251 L520.291845,1.91937251 Z M111.345411,114.202029 L106.777269,145.263508 L85.2801292,145.263508 L89.8482713,114.202029 L56.7964195,114.202029 L44.032493,200.61174 L77.0843448,200.61174 L81.7868441,168.527661 L103.283983,168.527661 L98.5814842,200.61174 L131.633336,200.61174 L144.397263,114.202029 L111.345411,114.202029 Z M226.758178,138.488782 L230.38582,114.202029 L159.176546,114.202029 L146.412619,200.61174 L217.621894,200.61174 L221.249536,176.452812 L182.420328,176.452812 L183.495185,168.527661 L217.487537,168.527661 L220.846465,146.030458 L186.854113,146.030458 L187.92897,138.488782 L226.758178,138.488782 Z M303.879166,114.202029 L264.243815,114.202029 L221.383893,200.61174 L254.838816,200.61174 L260.75053,186.167513 L286.278383,186.167513 L288.025025,200.61174 L321.345591,200.61174 L303.879166,114.202029 Z M280.366669,139.383557 L283.725597,165.97116 L269.215028,165.97116 L280.366669,139.383557 Z M373.341797,112.540303 C359.503014,112.540303 349.42623,113.307254 339.752517,114.713329 L327.122948,200.483915 C334.109518,201.250865 344.723731,202.273465 356.009729,202.273465 C382.07501,202.273465 422.919575,195.243089 422.919575,151.782583 C422.919575,126.72888 403.303435,112.540303 373.341797,112.540303 L373.341797,112.540303 Z M363.668085,177.731062 L369.848512,136.315756 C370.923369,136.187931 372.670012,136.187931 373.879226,136.187931 C384.090367,136.187931 389.330295,142.195707 389.330295,152.421708 C389.330295,165.843335 382.881153,177.858887 367.564441,177.858887 C366.355227,177.858887 364.742942,177.858887 363.668085,177.731062 L363.668085,177.731062 Z M465.107711,139.255732 C465.107711,136.954882 468.600996,136.315756 473.303496,136.315756 C482.574137,136.315756 492.24785,138.872257 497.487778,141.428757 L506.22099,117.525479 C496.815992,114.585504 484.858208,112.540303 474.781424,112.540303 C448.581785,112.540303 432.324574,126.601055 432.324574,146.286108 C432.324574,175.685861 468.332282,168.655486 468.332282,175.813686 C468.332282,177.091937 467.123068,178.753662 459.599069,178.753662 C448.313071,178.753662 439.445501,175.046736 433.265073,171.723286 L424.531861,195.754389 C433.399431,199.589139 445.0885,202.273465 457.986784,202.273465 C484.723851,202.273465 501.921563,190.897038 501.921563,170.061561 C501.921563,139.639207 465.107711,146.797408 465.107711,139.255732 L465.107711,139.255732 Z" id="path-1"></path>
    </defs>
    <g id="Page-2" stroke="none" stroke-width="1" fill="none" fill-rule="evenodd" sketch:type="MSPage">
        <g id="Artboard-7-Copy" sketch:type="MSArtboardGroup">
            <g id="New-Mask-Group-+-Seeds-2" sketch:type="MSLayerGroup" transform="translate(150.000000, 56.000000)">
                <g id="New-Mask-Group" transform="translate(0.567901, 0.000000)">
                    <mask id="mask-2" sketch:name="Mask" fill="white">
                        <use xlink:href="#path-1"></use>
                    </mask>
                    <use id="Mask" sketch:type="MSShapeGroup" xlink:href="#path-1"></use>
                    <path d="M66.234605,241.091579 C118.28193,279.353718 208.181386,264.736119 280.159172,264.736119 C348.408822,264.736119 455.065849,283.131487 503.042439,248.453819 C567.054893,202.185366 561.857053,91.2906663 561.857053,4.32306884 C561.857053,-59.2649472 273.398423,-45.9695282 273.398423,-45.9695282 C273.398423,-45.9695282 -15.0602074,-74.181638 -15.0602074,4.32306884 C-15.0602074,87.7301439 3.08351237,194.666601 66.234605,241.091579 Z" id="Oval-3" fill="#8ECE00" sketch:type="MSShapeGroup" mask="url(#mask-2)"></path>
                    <path d="M45.334549,100.603045 C93.5428955,162.602012 186.26863,201.188223 283.99232,201.188223 C431.728797,201.188223 545.22333,116.559433 545.22333,6.91684253 C545.22333,1.62837236 545.22334,-24.4319954 545.22334,-24.4319954 L277.722776,-29.3253796 C277.722776,-29.3253796 15.5408706,-67.9720134 15.5408706,-11.3993728 C15.5408706,25.7176045 20.6626019,68.8733682 45.334549,100.603045 Z" id="Oval-1" fill="#BBEE78" sketch:type="MSShapeGroup" mask="url(#mask-2)"></path>
                    <path d="M26.7419307,16.7077975 C36.8125552,108.721058 149.428275,184.220542 278.97944,184.220542 C414.548563,184.220542 528.0447,99.7297069 528.0447,2.63828739 C528.0447,-37.939428 278.97944,-23.6724726 278.97944,-23.6724726 C278.97944,-23.6724726 25.7176862,-54.9424654 25.7176862,-4.84589304 C25.7176862,-0.535973117 26.2741264,12.4335641 26.7419307,16.7077975 Z" id="Oval-2" fill="#EE4154" sketch:type="MSShapeGroup" mask="url(#mask-2)"></path>
                </g>
                <g id="Seeds" transform="translate(35.989324, 3.635932)" fill="#2F2F2F" sketch:type="MSShapeGroup">
                    <path d="M93.3815381,82.5877668 C96.6542305,83.3974268 99.8535614,78.3511225 100.995925,73.8048059 C102.138288,69.2584893 98.2717682,63.1258912 98.2717682,63.1258912 C98.2717682,63.1258912 92.1069284,67.1076381 90.964565,71.6539547 C89.8222016,76.2002713 90.1088458,81.7781068 93.3815381,82.5877668 L93.3815381,82.5877668 Z" id="nice-one"></path>
                    <path d="M10.3289251,36.5892622 C13.6016174,35.7796022 14.0388881,29.8336071 12.8965247,25.2872905 C11.7541613,20.7409739 5.43869508,17.1273866 5.43869508,17.1273866 C5.43869508,17.1273866 1.87935868,23.5148826 3.02172206,28.0611992 C4.16408544,32.6075158 7.05623278,37.3989222 10.3289251,36.5892622 L10.3289251,36.5892622 Z" id="nice-one-2"></path>
                    <path d="M50.3670746,62.6836223 C53.7065247,63.2647851 56.5585154,58.0093261 57.3828846,53.3950135 C58.2072538,48.7807008 53.896035,42.9306693 53.896035,42.9306693 C53.896035,42.9306693 47.994657,47.3294267 47.1702878,51.9437393 C46.3459186,56.558052 47.0276246,62.1024596 50.3670746,62.6836223 L50.3670746,62.6836223 Z" id="nice-one-11"></path>
                    <path d="M88.9119472,136.932168 C92.269913,136.466386 93.336851,130.598317 92.6761472,125.95842 C92.0154433,121.318523 86.0836057,117.069694 86.0836057,117.069694 C86.0836057,117.069694 81.8482976,123.053025 82.5090015,127.692922 C83.1697053,132.332819 85.5539814,137.39795 88.9119472,136.932168 L88.9119472,136.932168 Z" id="nice-one-3"></path>
                    <path d="M135.887109,141.861388 C139.25999,141.861388 141.133956,136.196981 141.133956,131.511485 C141.133956,126.825989 135.887109,121.803713 135.887109,121.803713 C135.887109,121.803713 130.876174,127.147055 130.876174,131.832551 C130.876174,136.518047 132.514227,141.861388 135.887109,141.861388 Z" id="nice-one-4"></path>
                    <path d="M100.95204,41.4938353 C104.324921,41.4938353 106.198887,35.8294285 106.198887,31.1439326 C106.198887,26.4584368 100.95204,21.436161 100.95204,21.436161 C100.95204,21.436161 95.9411057,26.7795025 95.9411057,31.4649984 C95.9411057,36.1504942 97.5791586,41.4938353 100.95204,41.4938353 Z" id="nice-one-19"></path>
                    <path d="M219.233043,166.718607 C222.611106,167.010298 224.988154,161.529509 225.401913,156.861843 C225.815672,152.194177 221.004263,146.737258 221.004263,146.737258 C221.004263,146.737258 215.51378,151.626914 215.100021,156.294581 C214.686262,160.962247 215.85498,166.426916 219.233043,166.718607 L219.233043,166.718607 Z" id="nice-one-5"></path>
                    <path d="M180.996133,32.9395469 C184.300189,33.6924092 187.426952,28.5914694 188.494874,24.0260625 C189.562796,19.4606556 185.567695,13.3959495 185.567695,13.3959495 C185.567695,13.3959495 179.441152,17.4838487 178.37323,22.0492556 C177.305308,26.6146625 177.692077,32.1866846 180.996133,32.9395469 L180.996133,32.9395469 Z" id="nice-one-6"></path>
                    <path d="M254.365661,82.9139815 C257.738542,82.9139815 259.612508,77.2495748 259.612508,72.5640789 C259.612508,67.8785831 254.365661,62.8563073 254.365661,62.8563073 C254.365661,62.8563073 249.354727,68.1996488 249.354727,72.8851446 C249.354727,77.5706405 250.99278,82.9139815 254.365661,82.9139815 Z" id="nice-one-7"></path>
                    <path d="M254.365661,82.9139815 C257.738542,82.9139815 259.612508,77.2495748 259.612508,72.5640789 C259.612508,67.8785831 254.365661,62.8563073 254.365661,62.8563073 C254.365661,62.8563073 249.354727,68.1996488 249.354727,72.8851446 C249.354727,77.5706405 250.99278,82.9139815 254.365661,82.9139815 Z" id="nice-one-17"></path>
                    <path d="M259.494552,43.2517515 C262.867433,43.2517515 264.741399,37.5873447 264.741399,32.9018489 C264.741399,28.216353 259.494552,23.1940773 259.494552,23.1940773 C259.494552,23.1940773 254.483617,28.5374187 254.483617,33.2229146 C254.483617,37.9084105 256.12167,43.2517515 259.494552,43.2517515 Z" id="nice-one-18"></path>
                    <path d="M254.688922,142.219556 C258.046888,141.753774 259.113826,135.885705 258.453122,131.245808 C257.792418,126.605911 251.86058,122.357082 251.86058,122.357082 C251.86058,122.357082 247.625272,128.340413 248.285976,132.98031 C248.94668,137.620207 251.330956,142.685338 254.688922,142.219556 L254.688922,142.219556 Z" id="nice-one-12"></path>
                    <path d="M318.821029,143.496579 C322.203735,143.263119 323.682814,137.482801 323.351656,132.808718 C323.020497,128.134636 317.403405,123.487764 317.403405,123.487764 C317.403405,123.487764 312.755528,129.16493 313.086686,133.839012 C313.417845,138.513094 315.438323,143.730038 318.821029,143.496579 L318.821029,143.496579 Z" id="nice-one-13"></path>
                    <path d="M426.867233,72.7124595 C430.206683,73.2936222 433.058673,68.0381632 433.883043,63.4238506 C434.707412,58.8095379 430.396193,52.9595064 430.396193,52.9595064 C430.396193,52.9595064 424.494815,57.3582638 423.670446,61.9725765 C422.846077,66.5868891 423.527783,72.1312967 426.867233,72.7124595 L426.867233,72.7124595 Z" id="nice-one-14"></path>
                    <path d="M453.716187,21.8500639 C457.064614,21.2689011 457.925714,15.3676567 457.099129,10.753344 C456.272544,6.13903138 450.17774,2.09711077 450.17774,2.09711077 C450.17774,2.09711077 446.145775,8.22268155 446.97236,12.8369942 C447.798945,17.4513068 450.36776,22.4312266 453.716187,21.8500639 L453.716187,21.8500639 Z" id="nice-one-15"></path>
                    <path d="M383.593892,72.8851444 C386.966773,72.8851444 388.840739,67.2207377 388.840739,62.5352418 C388.840739,57.8497459 383.593892,52.8274702 383.593892,52.8274702 C383.593892,52.8274702 378.582958,58.1708117 378.582958,62.8563075 C378.582958,67.5418034 380.221011,72.8851444 383.593892,72.8851444 Z" id="nice-one-16"></path>
                    <path d="M192.433673,82.3491999 C195.628705,81.2045328 195.435663,75.245757 193.807608,70.8428311 C192.179553,66.4399052 185.464293,63.5011515 185.464293,63.5011515 C185.464293,63.5011515 182.574216,70.2228292 184.202271,74.6257551 C185.830327,79.0286809 189.238641,83.493867 192.433673,82.3491999 L192.433673,82.3491999 Z" id="nice-one-8"></path>
                    <path d="M333.007217,42.9821676 C336.306302,42.1725076 336.747099,36.2265125 335.595523,31.6801959 C334.443947,27.1338793 328.07755,23.520292 328.07755,23.520292 C328.07755,23.520292 324.489509,29.907788 325.641085,34.4541046 C326.792661,39.0004212 329.708132,43.7918276 333.007217,42.9821676 L333.007217,42.9821676 Z" id="nice-one-9"></path>
                    <path d="M142.686616,20.3641314 C146.082038,20.1876958 147.667354,14.3917353 147.418229,9.6785069 C147.169104,4.96527852 141.62016,0.18773976 141.62016,0.18773976 C141.62016,0.18773976 136.859841,5.82482964 137.108966,10.538058 C137.358091,15.2512864 139.291193,20.540567 142.686616,20.3641314 L142.686616,20.3641314 Z" id="nice-one-10"></path>
                </g>
            </g>
        </g>
    </g>
</svg>